<svg xmlns="http://www.w3.org/2000/svg" xmlns:xlink="http://www.w3.org/1999/xlink" width="1080" zoomAndPan="magnify" viewBox="0 0 810 809.999993" height="1080" preserveAspectRatio="xMidYMid meet" version="1.0"><defs><clipPath id="20f44e382f"><path d="M 167 92.054688 L 305 92.054688 L 305 199.996094 L 167 199.996094 Z M 167 92.054688 " clip-rule="nonzero"/></clipPath><clipPath id="b2154a1d76"><path d="M 238.351562 139.574219 C 196.648438 173.398438 193.199219 176.324219 188.175781 180.976562 C 182.324219 186.375 172.800781 197.699219 169.800781 199.199219 C 169.050781 199.648438 168.601562 199.726562 168.148438 199.5 C 167.773438 199.351562 167.25 198.976562 167.25 198.449219 C 167.324219 196.726562 173.101562 190.949219 176.101562 187.648438 C 178.875 184.574219 180.898438 182.398438 184.5 179.175781 C 189.824219 174.226562 196.574219 168.824219 205.648438 161.550781 C 221.101562 149.25 251.851562 125.175781 269.476562 112.648438 C 281.398438 104.175781 294.449219 92.324219 300.226562 92.398438 C 302.476562 92.398438 304.351562 93.898438 304.875 95.699219 C 305.699219 98.476562 301.726562 104.476562 299.773438 108.976562 C 297.675781 113.699219 295.199219 118.050781 292.425781 123.375 C 288.824219 130.199219 284.398438 138.75 279.75 146.324219 C 275.023438 154.125 269.398438 162.75 264.148438 169.273438 C 259.726562 174.824219 254.925781 180.300781 250.800781 183.601562 C 247.875 185.925781 244.199219 188.398438 242.398438 188.476562 C 241.574219 188.550781 240.824219 188.175781 240.523438 187.726562 C 240.300781 187.351562 240.898438 186.824219 240.824219 186.074219 C 240.523438 184.425781 237.824219 181.726562 237.148438 178.574219 C 236.175781 173.625 237 166.351562 237.898438 158.851562 C 239.101562 148.648438 242.476562 133.199219 245.023438 123.148438 C 246.976562 115.5 249.074219 107.476562 251.175781 103.351562 C 252.226562 101.25 253.273438 99.148438 254.398438 98.925781 C 255.375 98.773438 256.800781 99.675781 257.398438 100.726562 C 258.375 102.449219 257.699219 106.574219 257.101562 109.5 C 256.425781 112.726562 254.699219 116.101562 253.125 119.324219 C 251.398438 122.699219 249.449219 126 246.976562 129.375 C 243.976562 133.351562 239.25 139.574219 236.023438 141.523438 C 234.148438 142.726562 232.425781 142.800781 230.851562 142.949219 C 229.648438 143.023438 228.675781 143.023438 227.625 142.574219 C 226.5 142.125 224.773438 140.925781 224.550781 140.023438 C 224.398438 139.5 224.773438 138.601562 225.226562 138.375 C 225.601562 138.148438 226.648438 138.300781 227.023438 138.601562 C 227.324219 138.824219 227.550781 139.5 227.476562 139.875 C 227.398438 140.324219 226.949219 140.851562 226.574219 141 C 226.199219 141.226562 225.523438 141.148438 225.226562 140.925781 C 224.851562 140.699219 224.476562 140.175781 224.476562 139.726562 C 224.550781 139.199219 225.449219 138.226562 225.976562 138.148438 C 226.648438 138.074219 227.25 139.425781 228.226562 139.726562 C 229.648438 140.101562 232.050781 140.324219 234.074219 139.351562 C 237.375 137.773438 241.574219 131.625 244.425781 127.800781 C 246.824219 124.574219 248.699219 121.351562 250.351562 118.199219 C 251.851562 115.199219 253.574219 112.125 254.101562 109.273438 C 254.550781 106.648438 253.648438 101.699219 253.726562 101.625 C 253.800781 101.625 254.101562 102.976562 254.023438 104.175781 C 253.726562 107.625 249.898438 116.25 247.949219 123.75 C 245.398438 133.726562 242.101562 149.023438 240.898438 159 C 240 166.125 239.398438 172.273438 240 177.601562 C 240.449219 181.648438 243.75 186.898438 243 188.101562 C 242.699219 188.625 241.800781 188.625 241.351562 188.476562 C 240.976562 188.324219 240.523438 187.800781 240.449219 187.425781 C 240.375 186.976562 240.449219 186.523438 240.824219 186.074219 C 241.800781 184.800781 245.851562 183.75 248.625 181.5 C 252.601562 178.351562 257.324219 173.023438 261.675781 167.625 C 266.851562 161.101562 272.398438 152.550781 277.125 144.898438 C 281.773438 137.398438 286.125 128.773438 289.726562 122.023438 C 292.5 116.773438 294.824219 112.5 297 107.851562 C 298.949219 103.5 303 96 302.25 94.875 C 301.949219 94.5 301.273438 94.648438 300.375 94.949219 C 296.324219 96.300781 282.75 106.648438 271.351562 114.976562 C 254.023438 127.574219 222.976562 151.574219 207.523438 163.875 C 198.601562 171 193.050781 175.199219 186.601562 181.273438 C 180.523438 187.050781 172.425781 197.625 169.800781 199.199219 C 169.199219 199.648438 168.898438 199.726562 168.449219 199.648438 C 168 199.5 167.398438 198.898438 167.25 198.449219 C 167.175781 198 167.324219 197.699219 167.699219 197.101562 C 169.351562 194.398438 180.300781 184.199219 186.148438 178.726562 C 191.25 174 194.699219 171.074219 200.699219 166.050781 C 209.925781 158.324219 231.601562 138.449219 236.476562 137.25 C 237.523438 136.949219 238.425781 137.175781 238.726562 137.625 C 238.949219 138 238.351562 139.574219 238.351562 139.574219 " clip-rule="nonzero"/></clipPath></defs><path fill="#000000" d="M 810 405 C 810 411.628906 809.835938 418.253906 809.511719 424.871094 C 809.1875 431.492188 808.699219 438.101562 808.050781 444.695312 C 807.398438 451.292969 806.589844 457.871094 805.617188 464.425781 C 804.644531 470.980469 803.511719 477.511719 802.21875 484.011719 C 800.925781 490.511719 799.472656 496.976562 797.863281 503.40625 C 796.253906 509.835938 794.484375 516.222656 792.5625 522.566406 C 790.636719 528.90625 788.558594 535.199219 786.324219 541.441406 C 784.09375 547.679688 781.707031 553.863281 779.171875 559.988281 C 776.632812 566.109375 773.949219 572.167969 771.117188 578.160156 C 768.28125 584.152344 765.300781 590.070312 762.179688 595.914062 C 759.054688 601.761719 755.789062 607.527344 752.378906 613.210938 C 748.972656 618.898438 745.425781 624.496094 741.746094 630.003906 C 738.0625 635.515625 734.246094 640.933594 730.300781 646.257812 C 726.351562 651.582031 722.273438 656.804688 718.070312 661.929688 C 713.863281 667.054688 709.535156 672.070312 705.085938 676.980469 C 700.632812 681.890625 696.066406 686.691406 691.378906 691.378906 C 686.691406 696.066406 681.890625 700.632812 676.980469 705.085938 C 672.070312 709.535156 667.054688 713.863281 661.929688 718.070312 C 656.804688 722.273438 651.582031 726.351562 646.257812 730.300781 C 640.933594 734.246094 635.515625 738.0625 630.007812 741.746094 C 624.496094 745.425781 618.898438 748.972656 613.210938 752.378906 C 607.527344 755.789062 601.761719 759.054688 595.914062 762.179688 C 590.070312 765.300781 584.152344 768.28125 578.160156 771.117188 C 572.167969 773.949219 566.109375 776.632812 559.988281 779.171875 C 553.863281 781.707031 547.679688 784.09375 541.441406 786.324219 C 535.199219 788.558594 528.90625 790.636719 522.566406 792.5625 C 516.222656 794.484375 509.835938 796.253906 503.40625 797.863281 C 496.976562 799.472656 490.511719 800.925781 484.011719 802.21875 C 477.511719 803.511719 470.980469 804.644531 464.425781 805.617188 C 457.871094 806.589844 451.292969 807.398438 444.695312 808.050781 C 438.101562 808.699219 431.492188 809.1875 424.871094 809.511719 C 418.253906 809.835938 411.628906 810 405 810 C 398.371094 810 391.746094 809.835938 385.128906 809.511719 C 378.507812 809.1875 371.898438 808.699219 365.304688 808.050781 C 358.707031 807.398438 352.128906 806.589844 345.574219 805.617188 C 339.019531 804.644531 332.488281 803.511719 325.988281 802.21875 C 319.488281 800.925781 313.023438 799.472656 306.59375 797.863281 C 300.164062 796.253906 293.777344 794.484375 287.433594 792.5625 C 281.09375 790.636719 274.800781 788.558594 268.558594 786.324219 C 262.320312 784.09375 256.136719 781.707031 250.011719 779.171875 C 243.890625 776.632812 237.832031 773.949219 231.839844 771.117188 C 225.847656 768.28125 219.929688 765.300781 214.085938 762.179688 C 208.238281 759.054688 202.472656 755.789062 196.789062 752.378906 C 191.101562 748.972656 185.503906 745.425781 179.992188 741.746094 C 174.484375 738.0625 169.066406 734.246094 163.742188 730.300781 C 158.417969 726.351562 153.195312 722.273438 148.070312 718.070312 C 142.945312 713.863281 137.929688 709.535156 133.019531 705.085938 C 128.109375 700.632812 123.308594 696.066406 118.621094 691.378906 C 113.933594 686.691406 109.367188 681.890625 104.914062 676.980469 C 100.464844 672.070312 96.136719 667.054688 91.929688 661.929688 C 87.726562 656.804688 83.648438 651.582031 79.699219 646.257812 C 75.753906 640.933594 71.9375 635.515625 68.253906 630.007812 C 64.574219 624.496094 61.027344 618.898438 57.621094 613.210938 C 54.210938 607.527344 50.945312 601.761719 47.820312 595.914062 C 44.699219 590.070312 41.71875 584.152344 38.882812 578.160156 C 36.050781 572.167969 33.367188 566.109375 30.828125 559.988281 C 28.292969 553.863281 25.90625 547.679688 23.675781 541.441406 C 21.441406 535.199219 19.363281 528.90625 17.4375 522.566406 C 15.515625 516.222656 13.746094 509.835938 12.136719 503.40625 C 10.527344 496.976562 9.074219 490.511719 7.78125 484.011719 C 6.488281 477.511719 5.355469 470.980469 4.382812 464.425781 C 3.410156 457.871094 2.601562 451.292969 1.949219 444.695312 C 1.300781 438.101562 0.8125 431.492188 0.488281 424.871094 C 0.164062 418.253906 0 411.628906 0 405 C 0 398.371094 0.164062 391.746094 0.488281 385.128906 C 0.8125 378.507812 1.300781 371.898438 1.949219 365.304688 C 2.601562 358.707031 3.410156 352.128906 4.382812 345.574219 C 5.355469 339.019531 6.488281 332.488281 7.78125 325.988281 C 9.074219 319.488281 10.527344 313.023438 12.136719 306.59375 C 13.746094 300.164062 15.515625 293.777344 17.4375 287.433594 C 19.363281 281.09375 21.441406 274.800781 23.675781 268.558594 C 25.90625 262.320312 28.292969 256.136719 30.828125 250.011719 C 33.367188 243.890625 36.050781 237.832031 38.882812 231.839844 C 41.71875 225.847656 44.699219 219.929688 47.820312 214.085938 C 50.945312 208.238281 54.210938 202.472656 57.621094 196.789062 C 61.027344 191.101562 64.574219 185.503906 68.253906 179.992188 C 71.9375 174.484375 75.753906 169.066406 79.699219 163.742188 C 83.648438 158.417969 87.726562 153.195312 91.929688 148.070312 C 96.136719 142.945312 100.464844 137.929688 104.914062 133.019531 C 109.367188 128.109375 113.933594 123.308594 118.621094 118.621094 C 123.308594 113.933594 128.109375 109.367188 133.019531 104.914062 C 137.929688 100.464844 142.945312 96.136719 148.070312 91.929688 C 153.195312 87.726562 158.417969 83.648438 163.742188 79.699219 C 169.066406 75.753906 174.484375 71.9375 179.992188 68.253906 C 185.503906 64.574219 191.101562 61.027344 196.789062 57.621094 C 202.472656 54.210938 208.238281 50.945312 214.085938 47.820312 C 219.929688 44.699219 225.847656 41.71875 231.839844 38.882812 C 237.832031 36.050781 243.890625 33.367188 250.011719 30.828125 C 256.136719 28.292969 262.320312 25.90625 268.558594 23.675781 C 274.800781 21.441406 281.09375 19.363281 287.433594 17.4375 C 293.777344 15.515625 300.164062 13.746094 306.59375 12.136719 C 313.023438 10.527344 319.488281 9.074219 325.988281 7.78125 C 332.488281 6.488281 339.019531 5.355469 345.574219 4.382812 C 352.128906 3.410156 358.707031 2.601562 365.304688 1.949219 C 371.898438 1.300781 378.507812 0.8125 385.128906 0.488281 C 391.746094 0.164062 398.371094 0 405 0 C 411.628906 0 418.253906 0.164062 424.871094 0.488281 C 431.492188 0.8125 438.101562 1.300781 444.695312 1.949219 C 451.292969 2.601562 457.871094 3.410156 464.425781 4.382812 C 470.980469 5.355469 477.511719 6.488281 484.011719 7.78125 C 490.511719 9.074219 496.976562 10.527344 503.40625 12.136719 C 509.835938 13.746094 516.222656 15.515625 522.566406 17.4375 C 528.90625 19.363281 535.199219 21.441406 541.441406 23.675781 C 547.679688 25.90625 553.863281 28.292969 559.988281 30.828125 C 566.109375 33.367188 572.167969 36.050781 578.160156 38.882812 C 584.152344 41.71875 590.070312 44.699219 595.914062 47.820312 C 601.761719 50.945312 607.527344 54.210938 613.210938 57.621094 C 618.898438 61.027344 624.496094 64.574219 630.003906 68.253906 C 635.515625 71.9375 640.933594 75.753906 646.257812 79.699219 C 651.582031 83.648438 656.804688 87.726562 661.929688 91.929688 C 667.054688 96.136719 672.070312 100.464844 676.980469 104.914062 C 681.890625 109.367188 686.691406 113.933594 691.378906 118.621094 C 696.066406 123.308594 700.632812 128.109375 705.085938 133.019531 C 709.535156 137.929688 713.863281 142.945312 718.070312 148.070312 C 722.273438 153.195312 726.351562 158.417969 730.300781 163.742188 C 734.246094 169.066406 738.0625 174.484375 741.746094 179.992188 C 745.425781 185.503906 748.972656 191.101562 752.378906 196.789062 C 755.789062 202.472656 759.054688 208.238281 762.179688 214.085938 C 765.300781 219.929688 768.28125 225.847656 771.117188 231.839844 C 773.949219 237.832031 776.632812 243.890625 779.171875 250.011719 C 781.707031 256.136719 784.09375 262.320312 786.324219 268.558594 C 788.558594 274.800781 790.636719 281.09375 792.5625 287.433594 C 794.484375 293.777344 796.253906 300.164062 797.863281 306.59375 C 799.472656 313.023438 800.925781 319.488281 802.21875 325.988281 C 803.511719 332.488281 804.644531 339.019531 805.617188 345.574219 C 806.589844 352.128906 807.398438 358.707031 808.050781 365.304688 C 808.699219 371.898438 809.1875 378.507812 809.511719 385.128906 C 809.835938 391.746094 810 398.371094 810 405 Z M 810 405 " fill-opacity="1" fill-rule="nonzero"/><path fill="#ff0000" d="M 404.695312 664.46875 C 403.175781 664.46875 401.355469 663.859375 400.140625 662.949219 L 192.625 537.773438 C 190.195312 536.253906 188.371094 533.214844 188.371094 530.175781 L 188.371094 280.128906 C 188.371094 276.480469 190.195312 273.746094 192.625 271.925781 L 400.140625 147.050781 C 403.175781 145.53125 406.519531 145.53125 409.558594 147.050781 L 617.070312 271.925781 C 619.5 273.746094 621.324219 276.480469 621.324219 280.128906 L 621.324219 530.175781 C 621.324219 533.519531 619.5 536.554688 617.070312 537.773438 L 409.558594 662.644531 C 408.039062 663.859375 406.519531 664.46875 404.695312 664.46875 Z M 206.601562 525.011719 L 404.695312 644.414062 L 603.09375 525.011719 L 603.09375 284.988281 L 404.695312 165.585938 L 206.601562 284.988281 Z M 206.601562 525.011719 " fill-opacity="1" fill-rule="evenodd"/><path fill="#ff0000" d="M 197.183594 289.242188 C 192.929688 289.242188 189.285156 286.203125 188.371094 282.558594 C 187.15625 277.394531 190.195312 272.835938 195.054688 271.621094 L 402.570312 220.882812 C 407.734375 219.667969 412.292969 222.703125 413.8125 227.566406 C 415.027344 232.730469 411.988281 237.289062 406.824219 238.808594 L 199.308594 289.242188 C 199.007812 288.9375 198.09375 289.242188 197.183594 289.242188 Z M 197.183594 289.242188 " fill-opacity="1" fill-rule="evenodd"/><path fill="#ff0000" d="M 612.511719 289.242188 C 611.601562 289.242188 610.992188 289.242188 610.386719 288.9375 L 402.570312 238.199219 C 397.707031 236.984375 394.667969 231.820312 395.886719 227.261719 C 397.101562 222.703125 402.265625 219.363281 406.824219 220.578125 L 614.335938 271.011719 C 619.5 272.53125 622.539062 277.394531 621.324219 282.253906 C 620.414062 286.203125 616.460938 289.242188 612.511719 289.242188 Z M 612.511719 289.242188 " fill-opacity="1" fill-rule="evenodd"/><path fill="#ff0000" d="M 612.511719 538.988281 C 610.992188 538.988281 609.777344 538.683594 608.257812 538.074219 L 550.230469 509.515625 L 258.859375 509.515625 L 201.4375 538.074219 C 196.878906 540.203125 191.410156 538.683594 189.285156 534.125 C 187.15625 529.265625 188.675781 523.796875 193.539062 521.667969 L 252.480469 492.199219 C 253.695312 491.894531 254.910156 491.285156 256.734375 491.285156 L 552.964844 491.285156 C 554.179688 491.285156 555.699219 491.894531 557.214844 492.199219 L 617.070312 521.667969 C 621.628906 523.796875 623.449219 529.265625 621.324219 534.125 C 619.199219 537.46875 615.855469 538.988281 612.511719 538.988281 Z M 612.511719 538.988281 " fill-opacity="1" fill-rule="evenodd"/><path fill="#ff0000" d="M 256.734375 509.515625 C 254.910156 509.515625 253.695312 509.210938 252.480469 508.300781 C 248.226562 505.871094 246.707031 500.097656 248.832031 496.148438 L 397.101562 224.832031 C 399.835938 220.578125 405.304688 218.753906 409.558594 220.882812 C 413.507812 223.617188 415.328125 229.085938 413.203125 233.035156 L 264.632812 504.957031 C 263.113281 507.691406 259.769531 509.515625 256.734375 509.515625 Z M 256.734375 509.515625 " fill-opacity="1" fill-rule="evenodd"/><path fill="#ff0000" d="M 552.355469 509.515625 C 549.011719 509.515625 546.277344 507.691406 544.457031 504.957031 L 396.796875 233.640625 C 394.367188 229.386719 395.886719 223.617188 400.441406 221.488281 C 404.695312 218.753906 410.773438 220.578125 412.898438 225.136719 L 560.558594 496.453125 C 562.988281 500.707031 561.46875 506.476562 556.609375 508.605469 C 555.394531 509.515625 554.179688 509.515625 552.355469 509.515625 Z M 552.355469 509.515625 " fill-opacity="1" fill-rule="evenodd"/><path fill="#ff0000" d="M 256.734375 509.515625 C 252.78125 509.515625 249.136719 507.085938 247.921875 503.136719 L 188.675781 308.992188 C 187.460938 304.433594 190.195312 299.269531 194.753906 297.75 C 199.308594 296.535156 204.476562 298.964844 205.992188 303.523438 L 265.238281 497.667969 C 266.457031 502.222656 264.023438 507.390625 259.164062 509.210938 C 258.253906 509.515625 257.644531 509.515625 256.734375 509.515625 Z M 256.734375 509.515625 " fill-opacity="1" fill-rule="evenodd"/><path fill="#ff0000" d="M 552.355469 509.515625 C 551.746094 509.515625 550.835938 509.515625 549.925781 509.210938 C 545.367188 507.390625 542.328125 502.222656 544.152344 497.667969 L 604.007812 303.523438 C 605.523438 298.964844 610.691406 295.925781 615.246094 297.75 C 620.109375 299.269531 622.84375 304.433594 621.324219 308.992188 L 561.46875 503.136719 C 559.953125 507.085938 556.609375 509.515625 552.355469 509.515625 Z M 552.355469 509.515625 " fill-opacity="1" fill-rule="evenodd"/><path fill="#ff0000" d="M 404.695312 664.46875 C 402.265625 664.46875 400.140625 663.554688 398.011719 661.429688 L 250.046875 507.085938 C 246.707031 503.136719 246.707031 497.667969 250.351562 494.019531 C 254.300781 490.679688 259.769531 490.679688 263.417969 494.324219 L 411.683594 648.667969 C 415.027344 652.617188 415.027344 658.085938 411.078125 661.734375 C 409.558594 663.554688 407.429688 664.46875 404.695312 664.46875 Z M 404.695312 664.46875 " fill-opacity="1" fill-rule="evenodd"/><path fill="#ff0000" d="M 404.695312 664.46875 C 402.570312 664.46875 400.140625 663.554688 398.621094 661.734375 C 394.667969 658.390625 394.667969 652.617188 398.011719 648.667969 L 545.671875 494.324219 C 549.011719 490.679688 555.089844 490.679688 558.734375 494.019531 C 562.6875 497.363281 562.6875 503.136719 559.34375 507.085938 L 411.683594 661.429688 C 409.859375 663.554688 407.429688 664.46875 404.695312 664.46875 Z M 404.695312 664.46875 " fill-opacity="1" fill-rule="evenodd"/><path fill="#ff0000" d="M 404.695312 238.199219 C 399.835938 238.199219 395.582031 233.945312 395.582031 229.085938 L 395.582031 155.253906 C 395.582031 150.089844 399.835938 145.835938 404.695312 145.835938 C 409.859375 145.835938 414.113281 150.089844 414.113281 155.253906 L 414.113281 229.386719 C 414.113281 233.945312 409.859375 238.199219 404.695312 238.199219 Z M 404.695312 238.199219 " fill-opacity="1" fill-rule="evenodd"/><g clip-path="url(#20f44e382f)"><g clip-path="url(#b2154a1d76)"><path fill="#000000" d="M 164.25 89.398438 L 308.023438 89.398438 L 308.023438 202.648438 L 164.25 202.648438 Z M 164.25 89.398438 " fill-opacity="1" fill-rule="nonzero"/></g></g></svg>